<svg xmlns="http://www.w3.org/2000/svg" width="546" height="694"><path fill="#646464" d="M94 555.7a139 139 0 0 0 139 139c66.1 0 123.4-47.1 136.2-111.9.2-1-.1-1.9-.8-2.5-.8-.6-1.8-.8-2.7-.4-40 16-85 25-134 26.7a30 30 0 0 1-27.8-13.7 39.1 39.1 0 0 1-.8-38c5.7-10.7 16-17 28.8-17.4a303.4 303.4 0 0 0 128.3-31.6c1.2-.7 1.7-2 1.2-3.3A138.6 138.6 0 0 0 233 416.8 139 139 0 0 0 94 555.7Z"/><path fill="#d5d5d5" d="M474.4 510A304.2 304.2 0 0 0 541 364.3c5-27.5 6-56 3.3-84.5-5-48.2-20-93.5-44.5-134.4C438.4 42.4 329.3-12.5 215.1 2A285.3 285.3 0 0 0 .5 145.4a2.6 2.6 0 0 0 0 2.6c.5.8 1.3 1.3 2.3 1.3h88.7c.7 0 1.4-.3 2-.9 71-80.5 202.2-92.2 286.4-25.4 9.7 7.8 18.8 16.4 26.9 25.4 49.8 56.1 70.2 138.4 53.2 214.9a229.5 229.5 0 0 1-28 70.3 186.4 186.4 0 0 1-74.2 67.7 298 298 0 0 1-126.1 31 37.6 37.6 0 0 0-33.2 20.2 44.6 44.6 0 0 0 1 43.2 35 35 0 0 0 32.4 16.1 405 405 0 0 0 135.8-27A268 268 0 0 0 474.4 510Z"/></svg>